<svg id="LOGO_ECLIPSE" data-name="LOGO ECLIPSE" xmlns="http://www.w3.org/2000/svg" width="19" height="19" viewBox="0 0 19 19">
  <g id="Ellipse_10" data-name="Ellipse 10" fill="none" stroke="#fff" stroke-width="1.5">
    <circle cx="9.5" cy="9.5" r="9.5" stroke="none"/>
    <circle cx="9.5" cy="9.5" r="8.75" fill="none"/>
  </g>
  <g id="Tracé_12" data-name="Tracé 12" transform="translate(-574.471 -998.182)" fill="none">
    <path d="M582.966,1014.055c3.94,0,7.134-2.828,7.134-6.319s-3.194-6.319-7.134-6.319a11.676,11.676,0,0,1,1.627,6.319A12.078,12.078,0,0,1,582.966,1014.055Z" stroke="none"/>
    <path d="M 585.4537963867188 1012.059509277344 C 587.3159790039062 1011.272338867188 588.5997314453125 1009.630310058594 588.5997314453125 1007.736633300781 C 588.5997314453125 1005.852966308594 587.3296508789062 1004.218322753906 585.4834594726562 1003.42626953125 C 585.8384399414062 1004.586120605469 586.12109375 1006.057189941406 586.0926513671875 1007.76171875 C 586.0647583007812 1009.42919921875 585.7985229492188 1010.883483886719 585.4537963867188 1012.059509277344 M 582.966064453125 1014.055236816406 C 582.966064453125 1014.055236816406 584.5245971679688 1011.818298339844 584.5928344726562 1007.736633300781 C 584.656982421875 1003.897766113281 582.966064453125 1001.417907714844 582.966064453125 1001.417907714844 C 586.906005859375 1001.417907714844 590.0997314453125 1004.246765136719 590.0997314453125 1007.736633300781 C 590.0997314453125 1011.226745605469 586.906005859375 1014.055236816406 582.966064453125 1014.055236816406 Z" stroke="none" fill="#fff"/>
  </g>
</svg>
