<?xml version="1.0" standalone="no"?>
<!DOCTYPE svg PUBLIC "-//W3C//DTD SVG 20010904//EN"
 "http://www.w3.org/TR/2001/REC-SVG-20010904/DTD/svg10.dtd">
<svg version="1.0" xmlns="http://www.w3.org/2000/svg"
 width="647.000000pt" height="647.000000pt" viewBox="0 0 647.000000 647.000000"
 preserveAspectRatio="xMidYMid meet">
<metadata>
Created by potrace 1.11, written by Peter Selinger 2001-2013
</metadata>
<g transform="translate(0.000000,647.000000) scale(0.100000,-0.100000)"
fill="#000000" stroke="none">
<path d="M2970 6450 c-104 -22 -192 -59 -288 -123 -56 -37 -314 -290 -1098
-1074 -564 -564 -1036 -1040 -1049 -1057 -36 -49 -62 -100 -79 -157 -14 -46
-16 -254 -16 -1845 0 -1162 3 -1810 10 -1839 38 -169 185 -314 351 -345 33 -7
922 -10 2443 -10 2154 0 2396 2 2441 16 28 9 56 16 63 17 6 0 12 4 12 8 0 4 7
9 15 11 28 6 122 81 146 117 13 20 26 38 29 41 11 10 53 105 59 135 8 41 8
3654 -1 3685 -3 14 -7 26 -9 28 -1 1 -2 5 -4 10 -7 27 -29 70 -55 107 -33 48
-2025 2045 -2105 2111 -55 45 -126 90 -137 87 -3 -1 -12 4 -18 12 -7 8 -21 15
-31 15 -10 0 -20 4 -23 9 -3 5 -16 11 -28 14 -13 3 -50 13 -83 22 -93 26 -432
29 -545 5z"/>
</g>
</svg>
